<?xml version="1.0" encoding="UTF-8"?>
<!DOCTYPE svg PUBLIC "-//W3C//DTD SVG 1.1//EN" "http://www.w3.org/Graphics/SVG/1.1/DTD/svg11.dtd">
<svg class="diagram-root" style="background: #f5f6f6" xmlns="http://www.w3.org/2000/svg" xmlns:xlink="http://www.w3.org/1999/xlink"><style>.diagram-root { font-family: "Helvetica Neue", sans-serif; font-size: 12px; } .t { overflow: visible; } .t-bg { y: 40; fill: #fff;   } .th { fill: #005aa0;   } .tht { fill: #fff; font-size: 14px;  } .tf { fill: #323c46; overflow: visible; } .tf.pk { fill: #005aa0; font-weight: bold; } .tf.fk { font-weight: bold; } .ty { fill: #adb1b5; font-weight: normal; text-anchor: end; } .r { fill: transparent; stroke: #c3c3c3; stroke-width: 1; } .l { stroke: 1; } .i { fill: #c2c7ce; stroke: #c2c7ce; } .i.ix { fill: #afb3b6; stroke: #000; } .fa { fill: transparent; overflow: visible; } .fa .bg.hover { fill: #f7f7f7; } .c { cy: 12; r: 4; stroke: #d2d2dc; fill: #d2d2dc; } .hr { fill: transparent; stroke: #323c46; stroke-opacity: 0.035; stroke-width: 13; } .dc { stroke: #fa5a3c; fill: #fa5a3c; } .x { stroke: white; stroke-width: 1; } .hl .th { fill: #1b9bff; } .hl .tht {  } .fhl .bg { fill: #e7f4ff; } .fhls .bg {  } .r.hl { stroke: #1b9bff; } .dim { opacity: 0.25; }</style><g class="drawing-wrapper" transform="translate(-291.33333333333326, 5.4728571428571335) scale(1,1)"><g class="rs"><path d="M 575 193.67000000000002 m -1, 0 a 1,1 0 1,0 2,0 a 1,1 0 1,0 -2,0 M 575 193.67000000000002 m -0.5, 0 a 0.5,0.5 0 1,0 1,0 a 0.5,0.5 0 1,0 -1,0  M575 193.67000000000002 L575 193.67000000000002 563 193.67000000000002 M 575 199.67000000000002 m -1, 0 a 1,1 0 1,0 2,0 a 1,1 0 1,0 -2,0 M 575 199.67000000000002 m -0.5, 0 a 0.5,0.5 0 1,0 1,0 a 0.5,0.5 0 1,0 -1,0  M575 199.67000000000002 L575 199.67000000000002 568 193.67000000000002 575 187.67000000000002 M 575 187.67000000000002 m -1, 0 a 1,1 0 1,0 2,0 a 1,1 0 1,0 -2,0 M 575 187.67000000000002 m -0.5, 0 a 0.5,0.5 0 1,0 1,0 a 0.5,0.5 0 1,0 -1,0  M563 193.67000000000002 Q 541.55 193.67000000000002, 520.1 235.69 T 477.2 277.71428571428567 M 465.2 277.71428571428567 m -1, 0 a 1,1 0 1,0 2,0 a 1,1 0 1,0 -2,0 M 465.2 277.71428571428567 m -0.5, 0 a 0.5,0.5 0 1,0 1,0 a 0.5,0.5 0 1,0 -1,0  M465.2 277.71428571428567 L465.2 277.71428571428567 477.2 277.71428571428567 M471.2 283.71428571428567 L471.2 283.71428571428567 471.2 271.71428571428567" id="h973931431" class="r"></path><path d="M 468.75 183.67000000000002 m -1, 0 a 1,1 0 1,0 2,0 a 1,1 0 1,0 -2,0 M 468.75 183.67000000000002 m -0.5, 0 a 0.5,0.5 0 1,0 1,0 a 0.5,0.5 0 1,0 -1,0  M468.75 183.67000000000002 L468.75 183.67000000000002 480.75 183.67000000000002 M 468.75 189.67000000000002 m -1, 0 a 1,1 0 1,0 2,0 a 1,1 0 1,0 -2,0 M 468.75 189.67000000000002 m -0.5, 0 a 0.5,0.5 0 1,0 1,0 a 0.5,0.5 0 1,0 -1,0  M468.75 189.67000000000002 L468.75 189.67000000000002 475.75 183.67000000000002 468.75 177.67000000000002 M 468.75 177.67000000000002 m -1, 0 a 1,1 0 1,0 2,0 a 1,1 0 1,0 -2,0 M 468.75 177.67000000000002 m -0.5, 0 a 0.5,0.5 0 1,0 1,0 a 0.5,0.5 0 1,0 -1,0  M480.75 183.67000000000002 Q 501.32 183.67000000000002, 521.88 176.17 T 563 168.67000000000002 M 575 168.67000000000002 m -1, 0 a 1,1 0 1,0 2,0 a 1,1 0 1,0 -2,0 M 575 168.67000000000002 m -0.5, 0 a 0.5,0.5 0 1,0 1,0 a 0.5,0.5 0 1,0 -1,0  M575 168.67000000000002 L575 168.67000000000002 563 168.67000000000002 M569 174.67000000000002 L569 174.67000000000002 569 162.67000000000002" id="h285543943" class="r"></path><path d="M 894.07 182 m -1, 0 a 1,1 0 1,0 2,0 a 1,1 0 1,0 -2,0 M 894.07 182 m -0.5, 0 a 0.5,0.5 0 1,0 1,0 a 0.5,0.5 0 1,0 -1,0  M894.07 182 L894.07 182 906.07 182 M 894.07 188 m -1, 0 a 1,1 0 1,0 2,0 a 1,1 0 1,0 -2,0 M 894.07 188 m -0.5, 0 a 0.5,0.5 0 1,0 1,0 a 0.5,0.5 0 1,0 -1,0  M894.07 188 L894.07 188 901.07 182 894.07 176 M 894.07 176 m -1, 0 a 1,1 0 1,0 2,0 a 1,1 0 1,0 -2,0 M 894.07 176 m -0.5, 0 a 0.5,0.5 0 1,0 1,0 a 0.5,0.5 0 1,0 -1,0  M906.07 182 C 1212.71 182, 1116.47 81.52714285714286, 1066.47 81.52714285714286 M 1054.47 81.52714285714286 m -1, 0 a 1,1 0 1,0 2,0 a 1,1 0 1,0 -2,0 M 1054.47 81.52714285714286 m -0.5, 0 a 0.5,0.5 0 1,0 1,0 a 0.5,0.5 0 1,0 -1,0  M1054.47 81.52714285714286 L1054.47 81.52714285714286 1066.47 81.52714285714286 M1060.47 87.52714285714286 L1060.47 87.52714285714286 1060.47 75.52714285714286" id="h348586268" class="r"></path><path d="M 891.39 332 m -1, 0 a 1,1 0 1,0 2,0 a 1,1 0 1,0 -2,0 M 891.39 332 m -0.5, 0 a 0.5,0.5 0 1,0 1,0 a 0.5,0.5 0 1,0 -1,0  M891.39 332 L891.39 332 903.39 332 M 891.39 338 m -1, 0 a 1,1 0 1,0 2,0 a 1,1 0 1,0 -2,0 M 891.39 338 m -0.5, 0 a 0.5,0.5 0 1,0 1,0 a 0.5,0.5 0 1,0 -1,0  M891.39 338 L891.39 338 898.39 332 891.39 326 M 891.39 326 m -1, 0 a 1,1 0 1,0 2,0 a 1,1 0 1,0 -2,0 M 891.39 326 m -0.5, 0 a 0.5,0.5 0 1,0 1,0 a 0.5,0.5 0 1,0 -1,0  M903.39 332 C 957.6780000000001 332, 956.07 82, 906.07 82 M 894.07 82 m -1, 0 a 1,1 0 1,0 2,0 a 1,1 0 1,0 -2,0 M 894.07 82 m -0.5, 0 a 0.5,0.5 0 1,0 1,0 a 0.5,0.5 0 1,0 -1,0  M894.07 82 L894.07 82 906.07 82 M900.07 88 L900.07 88 900.07 76" id="h1812625140" class="r"></path><path d="M 733.33 357 m -1, 0 a 1,1 0 1,0 2,0 a 1,1 0 1,0 -2,0 M 733.33 357 m -0.5, 0 a 0.5,0.5 0 1,0 1,0 a 0.5,0.5 0 1,0 -1,0  M733.33 357 L733.33 357 721.33 357 M727.33 363 L727.33 363 727.33 351 M721.33 357 C 418.00199999999995 357, 513 168.67000000000002, 563 168.67000000000002 M 575 168.67000000000002 m -1, 0 a 1,1 0 1,0 2,0 a 1,1 0 1,0 -2,0 M 575 168.67000000000002 m -0.5, 0 a 0.5,0.5 0 1,0 1,0 a 0.5,0.5 0 1,0 -1,0  M575 168.67000000000002 L575 168.67000000000002 563 168.67000000000002 M569 174.67000000000002 L569 174.67000000000002 569 162.67000000000002" id="h1167572492" class="r"></path><path d="M 733.33 382 m -1, 0 a 1,1 0 1,0 2,0 a 1,1 0 1,0 -2,0 M 733.33 382 m -0.5, 0 a 0.5,0.5 0 1,0 1,0 a 0.5,0.5 0 1,0 -1,0  M733.33 382 L733.33 382 721.33 382 M727.33 388 L727.33 388 727.33 376 M721.33 382 C 418.00199999999995 382, 513 168.67000000000002, 563 168.67000000000002 M 575 168.67000000000002 m -1, 0 a 1,1 0 1,0 2,0 a 1,1 0 1,0 -2,0 M 575 168.67000000000002 m -0.5, 0 a 0.5,0.5 0 1,0 1,0 a 0.5,0.5 0 1,0 -1,0  M575 168.67000000000002 L575 168.67000000000002 563 168.67000000000002 M569 174.67000000000002 L569 174.67000000000002 569 162.67000000000002" id="h3354970713" class="r"></path></g><g class="hrs"></g><g class="ts"><svg width="120.06" height="175" x="575" y="111.67" id="h3797432675" class="t"><rect height="40" width="120.06" class="th"></rect><text x="13" y="25" class="tht">Reservation</text><rect height="135" width="120.06" class="t-bg"></rect><text x="13" y="61" class="tf pk">id<tspan x="107.06" class="ty">long</tspan></text><path d="M7,14A2,2 0 0,1 5,12A2,2 0 0,1 7,10A2,2 0 0,1 9,12A2,2 0 0,1 7,14M12.65,10C11.83,7.67 9.61,6 7, 6A6, 6 0 0, 0 1, 12A6, 6 0 0, 0 7, 18C9.61, 18 11.83, 16.33 12.65, 14H17V18H21V14H23V10H12.65Z" class="i pk" transform="translate(64.3725, 48) scale(0.65)"></path><text x="13" y="86" class="tf fk">station_id<tspan x="107.06" class="ty">long</tspan></text><text x="13" y="111" class="tf">price<tspan x="107.06" class="ty">decimal</tspan></text><text x="13" y="136" class="tf">type<tspan x="107.06" class="ty">enum</tspan></text><text x="13" y="161" class="tf">time<tspan x="107.06" class="ty">date</tspan></text></svg><svg width="155.42" height="175" x="313.33" y="26.67" id="h4187780210" class="t"><rect height="40" width="155.42" class="th"></rect><text x="13" y="25" class="tht">Event</text><rect height="135" width="155.42" class="t-bg"></rect><text x="13" y="61" class="tf pk">id<tspan x="142.42" class="ty">long</tspan></text><path d="M7,14A2,2 0 0,1 5,12A2,2 0 0,1 7,10A2,2 0 0,1 9,12A2,2 0 0,1 7,14M12.65,10C11.83,7.67 9.61,6 7, 6A6, 6 0 0, 0 1, 12A6, 6 0 0, 0 7, 18C9.61, 18 11.83, 16.33 12.65, 14H17V18H21V14H23V10H12.65Z" class="i pk" transform="translate(99.73249999999999, 48) scale(0.65)"></path><text x="13" y="86" class="tf">time<tspan x="142.42" class="ty">date</tspan></text><text x="13" y="111" class="tf">potential_high_inv<tspan x="142.42" class="ty">int</tspan></text><text x="13" y="136" class="tf">potential_low_inv<tspan x="142.42" class="ty">int</tspan></text><text x="13" y="161" class="tf fk">reservation_id<tspan x="142.42" class="ty">long</tspan></text></svg><svg width="164.07" height="175" x="730" y="25" id="h997417447" class="t"><rect height="40" width="164.07" class="th"></rect><text x="13" y="25" class="tht">AccountTransaction</text><rect height="135" width="164.07" class="t-bg"></rect><text x="13" y="61" class="tf pk">id<tspan x="151.07" class="ty">long</tspan></text><path d="M7,14A2,2 0 0,1 5,12A2,2 0 0,1 7,10A2,2 0 0,1 9,12A2,2 0 0,1 7,14M12.65,10C11.83,7.67 9.61,6 7, 6A6, 6 0 0, 0 1, 12A6, 6 0 0, 0 7, 18C9.61, 18 11.83, 16.33 12.65, 14H17V18H21V14H23V10H12.65Z" class="i pk" transform="translate(108.3825, 48) scale(0.65)"></path><text x="13" y="86" class="tf">date<tspan x="151.07" class="ty">date</tspan></text><text x="13" y="111" class="tf">transaction_type<tspan x="151.07" class="ty">enum</tspan></text><text x="13" y="136" class="tf">amount<tspan x="151.07" class="ty">decimal</tspan></text><text x="13" y="161" class="tf fk">user_id<tspan x="151.07" class="ty">string</tspan></text></svg><svg width="158.06" height="175" x="733.33" y="225" id="h3970228849" class="t"><rect height="40" width="158.06" class="th"></rect><text x="13" y="25" class="tht">Trip</text><rect height="135" width="158.06" class="t-bg"></rect><text x="13" y="61" class="tf pk">id<tspan x="145.06" class="ty">long</tspan></text><path d="M7,14A2,2 0 0,1 5,12A2,2 0 0,1 7,10A2,2 0 0,1 9,12A2,2 0 0,1 7,14M12.65,10C11.83,7.67 9.61,6 7, 6A6, 6 0 0, 0 1, 12A6, 6 0 0, 0 7, 18C9.61, 18 11.83, 16.33 12.65, 14H17V18H21V14H23V10H12.65Z" class="i pk" transform="translate(102.3725, 48) scale(0.65)"></path><text x="13" y="86" class="tf">trip_details<tspan x="145.06" class="ty">json</tspan></text><text x="13" y="111" class="tf fk">transaction_id<tspan x="145.06" class="ty">long</tspan></text><text x="13" y="136" class="tf fk">start_reservation<tspan x="145.06" class="ty">long</tspan></text><text x="13" y="161" class="tf fk">end_reservation<tspan x="145.06" class="ty">long</tspan></text></svg><svg width="106.14" height="100" x="948.33" y="24.527142857142866" id="h921937321" class="t"><rect height="40" width="106.14" class="th"></rect><text x="13" y="25" class="tht">UserAccount</text><rect height="60" width="106.14" class="t-bg"></rect><text x="13" y="61" class="tf pk">id<tspan x="93.14" class="ty">string</tspan></text><path d="M7,14A2,2 0 0,1 5,12A2,2 0 0,1 7,10A2,2 0 0,1 9,12A2,2 0 0,1 7,14M12.65,10C11.83,7.67 9.61,6 7, 6A6, 6 0 0, 0 1, 12A6, 6 0 0, 0 7, 18C9.61, 18 11.83, 16.33 12.65, 14H17V18H21V14H23V10H12.65Z" class="i pk" transform="translate(43.79625, 48) scale(0.65)"></path><text x="13" y="86" class="tf">email<tspan x="93.14" class="ty">string</tspan></text></svg><svg width="151.39" height="200" x="313.8128571428571" y="220.7142857142857" id="h848053659" class="t"><rect height="40" width="151.39" class="th"></rect><text x="13" y="25" class="tht">Station</text><rect height="160" width="151.39" class="t-bg"></rect><text x="13" y="61" class="tf pk">id<tspan x="138.39" class="ty">long</tspan></text><path d="M7,14A2,2 0 0,1 5,12A2,2 0 0,1 7,10A2,2 0 0,1 9,12A2,2 0 0,1 7,14M12.65,10C11.83,7.67 9.61,6 7, 6A6, 6 0 0, 0 1, 12A6, 6 0 0, 0 7, 18C9.61, 18 11.83, 16.33 12.65, 14H17V18H21V14H23V10H12.65Z" class="i pk" transform="translate(95.70249999999999, 48) scale(0.65)"></path><text x="13" y="86" class="tf">address<tspan x="138.39" class="ty">string</tspan></text><text x="13" y="111" class="tf">lat<tspan x="138.39" class="ty">decimal</tspan></text><text x="13" y="136" class="tf">long<tspan x="138.39" class="ty">decimal</tspan></text><text x="13" y="161" class="tf">capacity<tspan x="138.39" class="ty">int</tspan></text><text x="13" y="186" class="tf">current_inventory<tspan x="138.39" class="ty">int</tspan></text></svg></g></g><text class="qdbd-link" x="10" y="20">www.quickdatabasediagrams.com</text></svg>
