<svg id="chart" preserveAspectRatio="xMinYMin meet"><g id="main-group" transform="translate(-69.79670019474041,-116.9094728261902) scale(0.4362293762171276)"><g id="ref-group"><g class="ref"><path class="hidden-path" d="M635.1439142227173,566.5L660,566.5A8,8,0,0,0,668,558.5L668,515.5A8,8,0,0,1,676,507.5L704,507.5"></path><path class="visible-path" d="M635.1439142227173,566.5L660,566.5A8,8,0,0,0,668,558.5L668,515.5A8,8,0,0,1,676,507.5L704,507.5"></path><text class="endpoint hidden" dy=".35em" x="644.1439142227173" y="575.5">1</text><text class="endpoint hidden" dy=".35em" x="695" y="498.5">*</text></g><g class="ref"><path class="hidden-path" d="M867.4958972930908,478.5L871.7479486465454,478.5A4.25205135345459,4.25205135345459,0,0,1,876,482.7520513534546L876,588.5A6,6,0,0,0,882,594.5L888,594.5"></path><path class="visible-path" d="M867.4958972930908,478.5L871.7479486465454,478.5A4.25205135345459,4.25205135345459,0,0,1,876,482.7520513534546L876,588.5A6,6,0,0,0,882,594.5L888,594.5"></path><text class="endpoint hidden" dy=".35em" x="876.4958972930908" y="469.5">1</text><text class="endpoint hidden" dy=".35em" x="879" y="603.5">*</text></g><g class="ref"><path class="hidden-path" d="M327.46162033081055,570.5L400,570.5A8,8,0,0,0,408,562.5L408,458.5A8,8,0,0,0,400,450.5L390.520809173584,450.5"></path><path class="visible-path" d="M327.46162033081055,570.5L400,570.5A8,8,0,0,0,408,562.5L408,458.5A8,8,0,0,0,400,450.5L390.520809173584,450.5"></path><text class="endpoint hidden" dy=".35em" x="336.46162033081055" y="579.5">1</text><text class="endpoint hidden" dy=".35em" x="399.520809173584" y="441.5">*</text></g><g class="ref"><path class="hidden-path" d="M390.520809173584,334.5L404,334.5A8,8,0,0,1,412,342.5L412,355.5A8,8,0,0,0,420,363.5L436,363.5"></path><path class="visible-path" d="M390.520809173584,334.5L404,334.5A8,8,0,0,1,412,342.5L412,355.5A8,8,0,0,0,420,363.5L436,363.5"></path><text class="endpoint hidden" dy=".35em" x="399.520809173584" y="325.5">1</text><text class="endpoint hidden" dy=".35em" x="427" y="372.5">*</text></g><g class="ref"><path class="hidden-path" d="M639.9067363739014,392.5L660,392.5A8,8,0,0,1,668,400.5L668,470.5A8,8,0,0,0,676,478.5L704,478.5"></path><path class="visible-path" d="M639.9067363739014,392.5L660,392.5A8,8,0,0,1,668,400.5L668,470.5A8,8,0,0,0,676,478.5L704,478.5"></path><text class="endpoint hidden" dy=".35em" x="695" y="487.5">1</text><text class="endpoint hidden" dy=".35em" x="648.9067363739014" y="383.5">*</text></g><g class="ref"><path class="hidden-path" d="M639.9067363739014,421.5L660,421.5A8,8,0,0,1,668,429.5L668,470.5A8,8,0,0,0,676,478.5L704,478.5"></path><path class="visible-path" d="M639.9067363739014,421.5L660,421.5A8,8,0,0,1,668,429.5L668,470.5A8,8,0,0,0,676,478.5L704,478.5"></path><text class="endpoint hidden" dy=".35em" x="695" y="487.5">1</text><text class="endpoint hidden" dy=".35em" x="648.9067363739014" y="412.5">*</text></g></g> <g id="table-group"><svg class="table no-select" width="199.14391422271729" height="206" x="436" y="520"><svg class="table-header" height="32"><rect height="32" width="199.14391422271729"></rect><text class="table-name" font-weight="bold" x="13" y="16" dy=".35em">station</text><title>station</title></svg><svg class="field primary-key" y="32" height="29" width="199.14391422271729"><rect height="29" width="199.14391422271729"></rect><text class="field-name" x="13" y="14.5" dy=".35em">id</text><text class="field-type" y="14.5" dy=".35em" x="187.14391422271729">long</text><title>id (long)</title></svg><svg class="field" y="61" height="29" width="199.14391422271729"><rect height="29" width="199.14391422271729"></rect><text class="field-name" x="13" y="14.5" dy=".35em">address</text><text class="field-type" y="14.5" dy=".35em" x="187.14391422271729">string</text><title>address (string)</title></svg><svg class="field" y="90" height="29" width="199.14391422271729"><rect height="29" width="199.14391422271729"></rect><text class="field-name" x="13" y="14.5" dy=".35em">lat</text><text class="field-type" y="14.5" dy=".35em" x="187.14391422271729">decimal</text><title>lat (decimal)</title></svg><svg class="field" y="119" height="29" width="199.14391422271729"><rect height="29" width="199.14391422271729"></rect><text class="field-name" x="13" y="14.5" dy=".35em">long</text><text class="field-type" y="14.5" dy=".35em" x="187.14391422271729">decimal</text><title>long (decimal)</title></svg><svg class="field" y="148" height="29" width="199.14391422271729"><rect height="29" width="199.14391422271729"></rect><text class="field-name" x="13" y="14.5" dy=".35em">capacity</text><text class="field-type" y="14.5" dy=".35em" x="187.14391422271729">int</text><title>capacity (int)</title></svg><svg class="field" y="177" height="29" width="199.14391422271729"><rect height="29" width="199.14391422271729"></rect><text class="field-name" x="13" y="14.5" dy=".35em">current_inventory</text><text class="field-type" y="14.5" dy=".35em" x="187.14391422271729">int</text><title>current_inventory (int)</title></svg></svg><svg class="table no-select" width="163.49589729309082" height="177" x="704" y="432"><svg class="table-header" height="32"><rect height="32" width="163.49589729309082"></rect><text class="table-name" font-weight="bold" x="13" y="16" dy=".35em">reservation</text><title>reservation</title></svg><svg class="field primary-key" y="32" height="29" width="163.49589729309082"><rect height="29" width="163.49589729309082"></rect><text class="field-name" x="13" y="14.5" dy=".35em">id</text><text class="field-type" y="14.5" dy=".35em" x="151.49589729309082">long</text><title>id (long)</title></svg><svg class="field" y="61" height="29" width="163.49589729309082"><rect height="29" width="163.49589729309082"></rect><text class="field-name" x="13" y="14.5" dy=".35em">station_id</text><text class="field-type" y="14.5" dy=".35em" x="151.49589729309082">long</text><title>station_id (long)</title></svg><svg class="field" y="90" height="29" width="163.49589729309082"><rect height="29" width="163.49589729309082"></rect><text class="field-name" x="13" y="14.5" dy=".35em">price</text><text class="field-type" y="14.5" dy=".35em" x="151.49589729309082">decimal</text><title>price (decimal)</title></svg><svg class="field" y="119" height="29" width="163.49589729309082"><rect height="29" width="163.49589729309082"></rect><text class="field-name" x="13" y="14.5" dy=".35em">type</text><text class="field-type" y="14.5" dy=".35em" x="151.49589729309082">enum</text><title>type (enum)</title></svg><svg class="field" y="148" height="29" width="163.49589729309082"><rect height="29" width="163.49589729309082"></rect><text class="field-name" x="13" y="14.5" dy=".35em">time</text><text class="field-type" y="14.5" dy=".35em" x="151.49589729309082">date</text><title>time (date)</title></svg></svg><svg class="table no-select" width="201.04200077056885" height="177" x="888" y="432"><svg class="table-header" height="32"><rect height="32" width="201.04200077056885"></rect><text class="table-name" font-weight="bold" x="13" y="16" dy=".35em">event</text><title>event</title></svg><svg class="field primary-key" y="32" height="29" width="201.04200077056885"><rect height="29" width="201.04200077056885"></rect><text class="field-name" x="13" y="14.5" dy=".35em">id</text><text class="field-type" y="14.5" dy=".35em" x="189.04200077056885">long</text><title>id (long)</title></svg><svg class="field" y="61" height="29" width="201.04200077056885"><rect height="29" width="201.04200077056885"></rect><text class="field-name" x="13" y="14.5" dy=".35em">time</text><text class="field-type" y="14.5" dy=".35em" x="189.04200077056885">date</text><title>time (date)</title></svg><svg class="field" y="90" height="29" width="201.04200077056885"><rect height="29" width="201.04200077056885"></rect><text class="field-name" x="13" y="14.5" dy=".35em">potential_high_inv</text><text class="field-type" y="14.5" dy=".35em" x="189.04200077056885">int</text><title>potential_high_inv (int)</title></svg><svg class="field" y="119" height="29" width="201.04200077056885"><rect height="29" width="201.04200077056885"></rect><text class="field-name" x="13" y="14.5" dy=".35em">potential_low_inv</text><text class="field-type" y="14.5" dy=".35em" x="189.04200077056885">int</text><title>potential_low_inv (int)</title></svg><svg class="field" y="148" height="29" width="201.04200077056885"><rect height="29" width="201.04200077056885"></rect><text class="field-name" x="13" y="14.5" dy=".35em">reservation_id</text><text class="field-type" y="14.5" dy=".35em" x="189.04200077056885">long</text><title>reservation_id (long)</title></svg></svg><svg class="table no-select" width="147.46162033081055" height="90" x="180" y="524"><svg class="table-header" height="32"><rect height="32" width="147.46162033081055"></rect><text class="table-name" font-weight="bold" x="13" y="16" dy=".35em">user_account</text><title>user_account</title></svg><svg class="field primary-key" y="32" height="29" width="147.46162033081055"><rect height="29" width="147.46162033081055"></rect><text class="field-name" x="13" y="14.5" dy=".35em">id</text><text class="field-type" y="14.5" dy=".35em" x="135.46162033081055">string</text><title>id (string)</title></svg><svg class="field" y="61" height="29" width="147.46162033081055"><rect height="29" width="147.46162033081055"></rect><text class="field-name" x="13" y="14.5" dy=".35em">email</text><text class="field-type" y="14.5" dy=".35em" x="135.46162033081055">string</text><title>email (string)</title></svg></svg><svg class="table no-select" width="210.52080917358398" height="177" x="180" y="288"><svg class="table-header" height="32"><rect height="32" width="210.52080917358398"></rect><text class="table-name" font-weight="bold" x="13" y="16" dy=".35em">account_transaction</text><title>account_transaction</title></svg><svg class="field primary-key" y="32" height="29" width="210.52080917358398"><rect height="29" width="210.52080917358398"></rect><text class="field-name" x="13" y="14.5" dy=".35em">id</text><text class="field-type" y="14.5" dy=".35em" x="198.52080917358398">long</text><title>id (long)</title></svg><svg class="field" y="61" height="29" width="210.52080917358398"><rect height="29" width="210.52080917358398"></rect><text class="field-name" x="13" y="14.5" dy=".35em">date</text><text class="field-type" y="14.5" dy=".35em" x="198.52080917358398">date</text><title>date (date)</title></svg><svg class="field" y="90" height="29" width="210.52080917358398"><rect height="29" width="210.52080917358398"></rect><text class="field-name" x="13" y="14.5" dy=".35em">transaction_type</text><text class="field-type" y="14.5" dy=".35em" x="198.52080917358398">enum</text><title>transaction_type (enum)</title></svg><svg class="field" y="119" height="29" width="210.52080917358398"><rect height="29" width="210.52080917358398"></rect><text class="field-name" x="13" y="14.5" dy=".35em">amount</text><text class="field-type" y="14.5" dy=".35em" x="198.52080917358398">decimal</text><title>amount (decimal)</title></svg><svg class="field" y="148" height="29" width="210.52080917358398"><rect height="29" width="210.52080917358398"></rect><text class="field-name" x="13" y="14.5" dy=".35em">user_id</text><text class="field-type" y="14.5" dy=".35em" x="198.52080917358398">long</text><title>user_id (long)</title></svg></svg><svg class="table no-select" width="203.90673637390137" height="177" x="436" y="288"><svg class="table-header" height="32"><rect height="32" width="203.90673637390137"></rect><text class="table-name" font-weight="bold" x="13" y="16" dy=".35em">trip</text><title>trip</title></svg><svg class="field primary-key" y="32" height="29" width="203.90673637390137"><rect height="29" width="203.90673637390137"></rect><text class="field-name" x="13" y="14.5" dy=".35em">id</text><text class="field-type" y="14.5" dy=".35em" x="191.90673637390137">long</text><title>id (long)</title></svg><svg class="field" y="61" height="29" width="203.90673637390137"><rect height="29" width="203.90673637390137"></rect><text class="field-name" x="13" y="14.5" dy=".35em">transaction_id</text><text class="field-type" y="14.5" dy=".35em" x="191.90673637390137">long</text><title>transaction_id (long)</title></svg><svg class="field" y="90" height="29" width="203.90673637390137"><rect height="29" width="203.90673637390137"></rect><text class="field-name" x="13" y="14.5" dy=".35em">start_reservation</text><text class="field-type" y="14.5" dy=".35em" x="191.90673637390137">long</text><title>start_reservation (long)</title></svg><svg class="field" y="119" height="29" width="203.90673637390137"><rect height="29" width="203.90673637390137"></rect><text class="field-name" x="13" y="14.5" dy=".35em">end_reservation</text><text class="field-type" y="14.5" dy=".35em" x="191.90673637390137">long</text><title>end_reservation (long)</title></svg><svg class="field" y="148" height="29" width="203.90673637390137"><rect height="29" width="203.90673637390137"></rect><text class="field-name" x="13" y="14.5" dy=".35em">trip_details</text><text class="field-type" y="14.5" dy=".35em" x="191.90673637390137">json</text><title>trip_details (json)</title></svg></svg></g> <g id="temp-ref-group"></g></g></svg>
